<svg width="12" height="13" viewBox="0 0 12 13" fill="none" xmlns="http://www.w3.org/2000/svg">
<g clip-path="url(#clip0_3758_45643)">
<path d="M6.01452 12.4292C9.27745 12.4292 11.9226 9.78503 11.9226 6.52322C11.9226 3.26141 9.27745 0.617188 6.01452 0.617188C2.75158 0.617188 0.106445 3.26141 0.106445 6.52322C0.106445 9.78503 2.75158 12.4292 6.01452 12.4292Z" fill="white"/>
<path d="M9.77394 7.59624C9.77394 5.52052 8.09066 3.83789 6.01429 3.83789C3.93784 3.83789 2.25464 5.52052 2.25464 7.59624H3.32874C3.32874 6.11348 4.53108 4.91162 6.01422 4.91162C7.49735 4.91162 8.69955 6.11348 8.69955 7.59624" fill="black" fill-opacity="0.1"/>
<path d="M6.28293 9.31493C7.41013 9.31493 8.32391 8.40147 8.32391 7.27465C8.32391 6.14784 7.41013 5.23438 6.28293 5.23438C5.15572 5.23438 4.24194 6.14784 4.24194 7.27465C4.24194 8.40147 5.15572 9.31493 6.28293 9.31493Z" fill="black" fill-opacity="0.1"/>
<path d="M6.01457 8.72391C7.23074 8.72391 8.21664 7.73835 8.21664 6.5226C8.21664 5.30685 7.23074 4.32129 6.01457 4.32129C4.7984 4.32129 3.8125 5.30685 3.8125 6.5226C3.8125 7.73835 4.7984 8.72391 6.01457 8.72391Z" fill="url(#paint0_linear_3758_45643)"/>
<path d="M11.3853 3.8384C9.9066 0.864423 6.29619 -0.348425 3.32104 1.12976C2.39339 1.59063 1.60053 2.2832 1.01929 3.14036L3.43623 7.32825C2.99111 5.91413 3.77716 4.40684 5.19205 3.96195C5.44084 3.88373 5.6997 3.84213 5.96048 3.83848" fill="url(#paint1_linear_3758_45643)"/>
<path d="M1.01943 3.14062C-0.830432 5.89924 -0.0930246 9.63462 2.66654 11.484C3.52033 12.0561 4.50654 12.4001 5.53108 12.4829L8.05547 8.1878C7.1115 9.33144 5.41906 9.49367 4.27502 8.55003C3.88644 8.22961 3.59585 7.80639 3.43645 7.32872" fill="url(#paint2_linear_3758_45643)"/>
<path d="M5.53101 12.4822C8.8437 12.7325 11.7323 10.2508 11.9828 6.93922C12.0637 5.87069 11.8574 4.79998 11.3854 3.83789H5.96055C7.44368 3.84473 8.64052 5.05215 8.63369 6.53477C8.63092 7.13463 8.42728 7.71628 8.05525 8.18695" fill="url(#paint3_linear_3758_45643)"/>
<path d="M1.01929 3.14059L3.43638 7.32841C3.25737 6.72611 3.29536 6.08012 3.54374 5.50294L1.12673 2.97949" fill="url(#paint4_linear_3758_45643)"/>
<path d="M5.53095 12.4827L8.05534 8.1875C7.65701 8.66223 7.10673 8.98466 6.49776 9.10013L5.42358 12.4827" fill="url(#paint5_linear_3758_45643)"/>
<path d="M11.3854 3.83789H5.96069C6.36406 3.83975 6.76182 3.93242 7.12444 4.10903C7.48707 4.28563 7.80524 4.54162 8.05532 4.85799L11.4928 3.99892" fill="url(#paint6_linear_3758_45643)"/>
</g>
<defs>
<linearGradient id="paint0_linear_3758_45643" x1="5.99666" y1="4.33003" x2="5.99666" y2="8.72194" gradientUnits="userSpaceOnUse">
<stop stop-color="#81B4E0"/>
<stop offset="1" stop-color="#0C5A94"/>
</linearGradient>
<linearGradient id="paint1_linear_3758_45643" x1="6.20229" y1="0.509942" x2="6.20229" y2="5.39587" gradientUnits="userSpaceOnUse">
<stop stop-color="#F06B59"/>
<stop offset="1" stop-color="#DF2227"/>
</linearGradient>
<linearGradient id="paint2_linear_3758_45643" x1="1.46357" y1="10.7979" x2="3.93327" y2="6.71668" gradientUnits="userSpaceOnUse">
<stop stop-color="#388B41"/>
<stop offset="1" stop-color="#4CB749"/>
</linearGradient>
<linearGradient id="paint3_linear_3758_45643" x1="9.74015" y1="11.2311" x2="7.1098" y2="4.89505" gradientUnits="userSpaceOnUse">
<stop stop-color="#E4B022"/>
<stop offset="0.3" stop-color="#FCD209"/>
</linearGradient>
<linearGradient id="paint4_linear_3758_45643" x1="2.2812" y1="7.16773" x2="2.2812" y2="2.87237" gradientUnits="userSpaceOnUse">
<stop stop-opacity="0.15"/>
<stop offset="0.3" stop-opacity="0.06"/>
<stop offset="1" stop-opacity="0.03"/>
</linearGradient>
<linearGradient id="paint5_linear_3758_45643" x1="8.21227" y1="8.55453" x2="5.25938" y2="11.5623" gradientUnits="userSpaceOnUse">
<stop stop-opacity="0.15"/>
<stop offset="0.3" stop-opacity="0.06"/>
<stop offset="1" stop-opacity="0.03"/>
</linearGradient>
<linearGradient id="paint6_linear_3758_45643" x1="8.16953" y1="9.41939" x2="8.59892" y2="5.17756" gradientUnits="userSpaceOnUse">
<stop stop-opacity="0.15"/>
<stop offset="0.3" stop-opacity="0.06"/>
<stop offset="1" stop-opacity="0.03"/>
</linearGradient>
<clipPath id="clip0_3758_45643">
<rect width="12" height="12" fill="white" transform="translate(0 0.5)"/>
</clipPath>
</defs>
</svg>
