<svg width="12" height="13" viewBox="0 0 12 13" fill="none" xmlns="http://www.w3.org/2000/svg">
<g clip-path="url(#clip0_3758_45654)">
<path d="M9.69562 1.61621C9.39434 1.95601 9.25359 2.72182 9.55952 3.49722C9.86487 4.27317 10.3337 4.10468 10.6256 4.89585C11.0112 5.93948 10.8315 7.34206 10.8315 7.34206C10.8315 7.34206 11.2951 8.64209 11.6179 7.26092C12.3321 4.66763 9.69562 2.25523 9.69562 1.61621Z" fill="url(#paint0_radial_3758_45654)"/>
<path d="M6.01752 12.3859C9.10418 12.3859 11.6046 9.94979 11.6046 6.94684C11.6046 3.94388 9.10418 1.50781 6.02043 1.50781C2.93668 1.50781 0.436289 3.94331 0.436289 6.94684C0.430473 9.95318 2.93377 12.3859 6.01752 12.3859Z" fill="url(#paint1_radial_3758_45654)"/>
<path d="M10.204 10.3003C10.0831 10.3831 9.95627 10.4569 9.82483 10.5217C9.99931 10.2743 10.1604 10.0179 10.307 9.75364C10.4262 9.62573 10.535 9.50175 10.624 9.36764C10.667 9.30171 10.7159 9.22056 10.7676 9.12589C11.0811 8.57816 11.4272 7.69231 11.4371 6.78224V6.77999C11.4371 6.75745 11.4377 6.73491 11.4371 6.71293C11.4388 6.48471 11.4144 6.25648 11.365 6.03333C11.3673 6.0508 11.3696 6.06827 11.3719 6.08574C11.369 6.07222 11.3667 6.05869 11.3638 6.04517C11.3684 6.06996 11.3719 6.09419 11.376 6.11786C11.44 6.64474 11.3946 7.15923 11.166 7.53791C11.1626 7.54355 11.1585 7.54862 11.155 7.55425C11.2736 6.97834 11.3132 6.34214 11.1812 5.70537C11.1812 5.70537 11.1282 5.396 10.7356 4.45606C10.51 3.91509 10.1087 3.4716 9.75387 3.14871C9.44328 2.77623 9.16061 2.52603 9.00532 2.36768C8.6802 2.03634 8.5441 1.78783 8.48826 1.62554C8.43999 1.60187 7.8194 1.01807 7.76996 0.996094C7.49892 1.40295 6.64743 2.6748 7.05282 3.86381C7.23661 4.40253 7.70075 4.96153 8.1864 5.27541C8.20792 5.29908 8.47547 5.58083 8.60284 6.21647C8.73429 6.87297 8.66507 7.3852 8.39462 8.14312C8.07647 8.80807 7.26104 9.46513 6.49737 9.53218C4.86535 9.67588 4.26744 8.73819 4.26744 8.73819C4.8508 8.96416 5.49524 8.91683 5.88784 8.68241C6.28334 8.44573 6.52238 8.26991 6.71606 8.33923C6.90742 8.40797 7.0598 8.20793 6.92312 8.00056C6.70734 7.67879 6.31416 7.51255 5.9239 7.57905C5.52839 7.6416 5.16604 7.94477 4.64724 7.65118C4.6135 7.63258 4.58093 7.61173 4.55011 7.58919C4.51579 7.56721 4.6612 7.62244 4.62746 7.59764C4.52684 7.54467 4.34828 7.42859 4.30175 7.38745C4.29419 7.38069 4.38027 7.41394 4.37213 7.40718C3.88764 7.02061 3.94813 6.75914 3.96325 6.59515C3.97547 6.46386 4.06329 6.29593 4.2116 6.22775C4.28314 6.2655 4.32793 6.2948 4.32793 6.2948C4.32793 6.2948 4.2971 6.23451 4.28082 6.20239C4.28663 6.20013 4.29187 6.2007 4.29768 6.19844C4.35643 6.22605 4.48613 6.29706 4.55476 6.34045C4.64375 6.40131 4.67225 6.4554 4.67225 6.4554C4.67225 6.4554 4.69551 6.44301 4.67806 6.39004C4.67167 6.36806 4.64491 6.29931 4.5565 6.22944L4.56174 6.23C4.61467 6.2593 4.66469 6.29255 4.71122 6.3303C4.73623 6.24296 4.78101 6.15111 4.77112 5.98769C4.76531 5.87273 4.76763 5.84287 4.74669 5.79835C4.72808 5.76003 4.75716 5.74538 4.78973 5.78482C4.78392 5.75383 4.77461 5.7234 4.76182 5.69466V5.69184C4.80253 5.55491 5.62087 5.19821 5.6802 5.15651C5.77791 5.08945 5.85992 5.00323 5.92099 4.90293C5.96635 4.83249 6.00067 4.73387 6.00881 4.58454C6.01346 4.47691 5.9617 4.40478 5.13405 4.32082C4.9078 4.2994 4.77519 4.14049 4.69958 3.99398C4.68562 3.96242 4.67167 3.93369 4.65771 3.90495C4.64433 3.8717 4.63328 3.83732 4.62572 3.80239C4.76124 3.42596 4.98807 3.10758 5.3225 2.86696C5.34053 2.85061 5.2498 2.8709 5.26783 2.85512C5.28935 2.83653 5.42777 2.78243 5.45395 2.77003C5.48593 2.75538 5.31727 2.68607 5.16779 2.70297C5.01599 2.71932 4.98341 2.73735 4.90257 2.77059C4.9363 2.73791 5.04332 2.69565 5.01831 2.69565C4.85429 2.71988 4.65131 2.81229 4.47682 2.91654C4.47624 2.89851 4.48031 2.88048 4.48729 2.86357C4.40645 2.89682 4.20695 3.0315 4.14937 3.14589C4.1517 3.12392 4.15286 3.10194 4.15286 3.07996C4.09121 3.13012 4.03537 3.18647 3.98652 3.24845L3.98361 3.25127C3.51366 3.06757 3.09954 3.05573 2.74941 3.13801C2.67264 3.06362 2.63541 3.11772 2.46092 2.74693C2.44929 2.72439 2.47023 2.7689 2.46092 2.74693C2.43243 2.6748 2.47837 2.84272 2.46092 2.74693C2.16779 2.97121 1.78217 3.22479 1.59722 3.40398C1.59489 3.41131 1.813 3.34425 1.59722 3.40398C1.52161 3.42483 1.52684 3.46822 1.51521 3.86156C1.5123 3.89142 1.51463 3.92467 1.5123 3.95172C1.36457 4.1343 1.26395 4.2887 1.22556 4.36872C1.03421 4.68823 0.823662 5.18581 0.619513 5.97304C0.709665 5.75947 0.817846 5.55378 0.944058 5.35824C0.774225 5.77637 0.610207 6.4323 0.577637 7.44268C0.618932 7.23418 0.671278 7.02793 0.735256 6.82507C0.695124 7.66358 0.844601 8.50039 1.17263 9.27691C1.29012 9.55529 1.48438 9.97736 1.81474 10.4406C2.85352 11.4994 4.31862 12.1587 5.94134 12.1587C7.63735 12.1587 9.15887 11.4408 10.204 10.3003Z" fill="url(#paint2_linear_3758_45654)"/>
<path d="M8.95066 11.0694C11.0009 10.8395 11.9082 8.79284 10.7426 8.75227C9.6899 8.72015 7.97936 11.1782 8.95066 11.0694Z" fill="url(#paint3_radial_3758_45654)"/>
<path d="M10.8903 8.33456C12.3007 7.53944 11.9331 5.82129 11.9331 5.82129C11.9331 5.82129 11.3887 6.43383 11.0188 7.41039C10.6535 8.37738 10.0422 8.81467 10.8903 8.33456Z" fill="url(#paint4_radial_3758_45654)"/>
<path d="M6.41247 12.0861C8.37893 12.6942 10.0691 11.193 9.02744 10.692C8.07998 10.2401 5.47955 11.7987 6.41247 12.0861Z" fill="url(#paint5_radial_3758_45654)"/>
<path d="M11.0368 9.06329C11.0845 8.99792 11.1491 8.7883 11.2067 8.69475C11.5539 8.15153 11.5562 7.71875 11.5562 7.70917C11.7662 6.69428 11.747 6.2801 11.6179 5.51373C11.5138 4.89668 11.0601 4.01253 10.6669 3.58708C10.2615 3.14866 10.5471 3.29123 10.1545 2.97116C9.81078 2.60149 9.47693 2.23577 9.29546 2.0887C7.98275 1.02535 8.01241 0.799379 8.03742 0.76106C8.03335 0.765569 8.02695 0.772331 8.01881 0.781347C8.0031 0.721051 7.99205 0.670898 7.99205 0.670898C7.99205 0.670898 7.27433 1.36627 7.12369 2.52429C7.02482 3.28053 7.31737 4.06888 7.74021 4.57322C7.96064 4.83413 8.20958 5.07137 8.48294 5.28043V5.27987C8.80283 5.72448 8.97848 6.27334 8.97848 6.8639C8.97848 8.34256 7.74079 9.54115 6.21404 9.54115C6.00582 9.54115 5.79876 9.51861 5.59577 9.47409C4.87515 9.3411 4.45929 8.98891 4.25165 8.74998C4.133 8.61304 4.0824 8.5133 4.0824 8.5133C4.728 8.73758 5.44164 8.69025 5.87553 8.45808C6.31291 8.22309 6.57755 8.04897 6.79217 8.11772C7.00388 8.1859 7.17255 7.98755 7.02133 7.78186C6.87301 7.57618 6.4874 7.28203 5.91508 7.36374C5.47712 7.42572 5.0758 7.72664 4.50233 7.43474C4.4651 7.41614 4.42962 7.39586 4.39473 7.37332C4.35692 7.3519 4.51745 7.406 4.48023 7.38177C4.36855 7.32936 4.1708 7.21441 4.11962 7.17383C4.1109 7.16707 4.20628 7.20032 4.19756 7.19356C3.6613 6.8098 3.72819 6.55115 3.74506 6.3883C3.75843 6.25813 3.85615 6.09189 4.02016 6.02427C4.09926 6.06202 4.1487 6.09076 4.1487 6.09076C4.1487 6.09076 4.11497 6.03103 4.09636 5.99891C4.10275 5.99666 4.10915 5.99722 4.11497 5.99497C4.18011 6.02201 4.32377 6.09302 4.39938 6.13584C4.49767 6.19614 4.52908 6.25024 4.52908 6.25024C4.52908 6.25024 4.55525 6.23784 4.53606 6.18543C4.52908 6.16402 4.49942 6.09527 4.40171 6.02596L4.40752 6.02652C4.46568 6.05526 4.52094 6.08851 4.5727 6.12626C4.60004 6.03948 4.64948 5.94876 4.63901 5.78647C4.63261 5.67264 4.63552 5.64277 4.61225 5.59882C4.59131 5.56106 4.62389 5.54641 4.65995 5.58529C4.65355 5.5543 4.64366 5.52443 4.62912 5.49569L4.6297 5.49288C4.67449 5.35707 5.58065 5.00375 5.64637 4.96205C5.75281 4.89724 5.84354 4.81159 5.91276 4.71072C5.96336 4.64084 6.00116 4.54336 6.01047 4.39515C6.01338 4.32809 5.99244 4.27569 5.75223 4.22497C5.60799 4.19454 5.38523 4.16524 5.04207 4.13368C4.79139 4.11227 4.64482 3.95449 4.56107 3.8091C4.54595 3.77754 4.53024 3.74937 4.51454 3.72119C4.5 3.68794 4.48779 3.65413 4.47906 3.6192C4.6297 3.23826 4.89957 2.91368 5.25145 2.69109C5.27181 2.67531 5.17061 2.69504 5.19097 2.67926C5.21423 2.66066 5.36778 2.60713 5.39686 2.59473C5.43234 2.58008 5.24506 2.51133 5.08046 2.52824C4.91237 2.54458 4.87689 2.56205 4.78674 2.59529C4.82396 2.56317 4.94261 2.52091 4.9147 2.52147C4.73323 2.5457 4.50814 2.63699 4.31563 2.74068C4.31504 2.72265 4.31912 2.70462 4.32726 2.68827C4.23769 2.72152 4.01726 2.85507 3.95328 2.96834C3.95618 2.94693 3.95735 2.92495 3.95677 2.90297C3.8893 2.952 3.82765 3.00779 3.77297 3.06977L3.76948 3.07259C3.24893 2.89057 2.7912 2.87874 2.40326 2.96045C2.31834 2.88663 2.18224 2.77449 1.98914 2.40708C1.97577 2.3851 1.96879 2.45273 1.9589 2.43075C1.88387 2.26226 1.8385 1.98614 1.84606 1.79623C1.84606 1.79623 1.69077 1.86442 1.56282 2.15068C1.53897 2.20196 1.52385 2.2307 1.50872 2.25888C1.50174 2.26733 1.52443 2.16477 1.52094 2.17041C1.49884 2.20703 1.44067 2.25831 1.41567 2.32424C1.39822 2.37327 1.37379 2.40088 1.35808 2.46174L1.35459 2.46738C1.35343 2.44934 1.35925 2.39299 1.35518 2.40483C1.29527 2.5226 1.24351 2.64432 1.20047 2.76886C1.13125 2.98919 1.05099 3.28841 1.03819 3.67836C1.03529 3.70767 1.03761 3.74092 1.03529 3.7674C0.87185 3.94829 0.760178 4.10156 0.718302 4.18102C0.50601 4.49659 0.27278 4.99022 0.0465297 5.77069C0.14715 5.55768 0.267546 5.35312 0.405971 5.16097C0.218108 5.57515 0.0366421 6.22601 0 7.22849C0.0453664 7.02112 0.10411 6.81657 0.174486 6.61596C0.141915 7.28428 0.222179 8.11265 0.658395 9.04751C0.917216 9.5975 1.51338 10.7138 2.96976 11.585C4.42613 12.4562 3.4653 11.9423 4.31679 12.2099C4.3796 12.2319 4.44358 12.2539 4.50872 12.2748C4.48895 12.2669 4.46917 12.2584 4.4494 12.25C5.01648 12.4145 5.6045 12.4985 6.19659 12.4985C8.40151 12.5002 9.05177 11.6425 9.05177 11.6425C9.05177 11.6425 9.04944 11.6442 9.04537 11.647C9.07619 11.6188 9.10644 11.589 9.13552 11.5585C8.78771 11.8769 7.9938 11.8978 7.69659 11.8752C8.2026 11.731 8.53587 11.6092 9.18379 11.3686C9.2594 11.3416 9.33734 11.3106 9.41644 11.2756C9.42517 11.2723 9.43389 11.2678 9.44203 11.2644C9.45774 11.257 9.47344 11.2508 9.48914 11.243C9.80496 11.0987 10.1016 10.9189 10.3738 10.7065C11.0246 10.2027 11.166 9.71189 11.2404 9.38844C11.2299 9.41943 11.1979 9.49156 11.1753 9.5389C11.0078 9.88602 10.6361 10.0996 10.2325 10.2822C10.4244 10.0382 10.6024 9.78402 10.7658 9.52086C10.8972 9.39464 10.9385 9.19628 11.0368 9.06329Z" fill="url(#paint6_radial_3758_45654)"/>
<path d="M10.2448 10.2679C10.51 9.98448 10.7484 9.66046 10.9287 9.29249C11.3935 8.34635 12.1112 6.77302 11.5458 5.13038C11.0986 3.83205 10.485 3.12202 9.70618 2.42834C8.44057 1.30188 8.08695 0.799225 8.08695 0.5C8.08695 0.5 6.62591 2.0784 7.2593 3.72386C7.89268 5.36931 9.19086 5.30958 10.0493 7.02717C11.0596 9.04849 9.23158 11.2541 7.71994 11.8717C7.81242 11.852 11.08 11.1352 11.2521 9.32461C11.2486 9.35785 11.1748 9.85825 10.2448 10.2679Z" fill="url(#paint7_radial_3758_45654)"/>
<path d="M6.01096 4.39423C6.01619 4.28717 5.95861 4.2156 5.04605 4.13276C4.67032 4.09895 4.52666 3.7631 4.48304 3.62109C4.34927 3.95751 4.2946 4.30971 4.32426 4.73685C4.34462 5.01635 4.5383 5.31614 4.63077 5.49252C4.63077 5.49252 4.65113 5.4666 4.66102 5.45702C4.8355 5.2812 5.5666 5.01297 5.63523 4.97465C5.71026 4.92844 5.99875 4.72445 6.01096 4.39423Z" fill="url(#paint8_linear_3758_45654)"/>
<path d="M1.99274 2.40772C1.97936 2.38575 1.97238 2.45337 1.96249 2.43139C1.88746 2.2629 1.8421 1.99016 1.85257 1.79688C1.85257 1.79688 1.69727 1.86506 1.56932 2.15132C1.54547 2.2026 1.53035 2.23134 1.51523 2.25952C1.50825 2.26797 1.53093 2.16541 1.52744 2.17105C1.50534 2.20768 1.44718 2.25896 1.42217 2.32207C1.40123 2.37391 1.38029 2.40152 1.364 2.46576C1.35935 2.48323 1.36866 2.38856 1.36459 2.4004C1.06621 2.9594 1.00922 3.80411 1.04062 3.76861C1.67575 3.11155 2.40394 2.95546 2.40394 2.95546C2.32717 2.89967 2.1585 2.7402 1.99274 2.40772Z" fill="url(#paint9_linear_3758_45654)"/>
<path d="M4.40339 9.28176C3.52572 8.91885 2.52824 8.40662 2.56546 7.24353C2.61665 5.7119 4.03987 6.01451 4.03987 6.01451C3.98636 6.02691 3.8427 6.12608 3.79152 6.23202C3.73801 6.36389 3.63972 6.66198 3.93693 6.97473C4.40397 7.46499 2.97783 8.13782 5.17869 9.40855C5.23452 9.43728 4.66337 9.39051 4.40339 9.28176Z" fill="url(#paint10_linear_3758_45654)"/>
<path d="M4.09169 8.51848C4.71402 8.72811 5.43872 8.69148 5.87319 8.45931C6.164 8.30265 6.53624 8.05133 6.76598 8.11331C6.56765 8.03724 6.41701 8.00174 6.23612 7.99329C6.2053 7.99329 6.16865 7.99272 6.13492 7.98934C6.06862 7.98934 6.00231 7.99272 5.93659 8.00005C5.82433 8.01019 5.70045 8.07838 5.58762 8.06767C5.5818 8.06711 5.69696 8.02146 5.68765 8.02371C5.62775 8.03555 5.56261 8.03837 5.49397 8.04682C5.45035 8.05133 5.41255 8.05696 5.36951 8.05865C4.07307 8.16516 2.97788 7.37793 2.97788 7.37793C2.88424 7.68166 3.3949 8.28349 4.09169 8.51848Z" fill="url(#paint11_linear_3758_45654)"/>
<path d="M10.2423 10.276C11.5533 9.02893 12.2169 7.51308 11.936 5.8124C11.936 5.8124 12.0482 6.68416 11.6231 7.5762C11.8272 6.70557 11.851 5.62363 11.309 4.50336C10.5854 3.0078 9.39544 2.22114 8.94062 1.89261C8.25256 1.39503 7.96698 0.888993 7.96175 0.78418C7.75586 1.19216 7.1341 2.59136 7.89486 3.79615C8.60793 4.92487 9.73104 5.26016 10.5168 6.29533C11.9656 8.20339 10.2423 10.276 10.2423 10.276Z" fill="url(#paint12_linear_3758_45654)"/>
<path d="M10.0544 7.03111C9.59606 6.11427 9.02433 5.71418 8.48342 5.28027C8.54624 5.36536 8.56194 5.39579 8.59684 5.45102C9.07318 5.9424 9.7752 7.14212 9.26512 8.64726C8.30545 11.4812 4.46791 10.1468 4.06543 9.77203C4.22828 11.4119 7.06136 12.1968 8.90626 11.1335C9.95609 10.1704 10.8053 8.53399 10.0544 7.03111Z" fill="url(#paint13_linear_3758_45654)"/>
</g>
<defs>
<radialGradient id="paint0_radial_3758_45654" cx="0" cy="0" r="1" gradientUnits="userSpaceOnUse" gradientTransform="translate(11.4334 3.50048) rotate(2.47541) scale(4.32835 6.16475)">
<stop offset="0.045" stop-color="#FFEA00"/>
<stop offset="0.12" stop-color="#FFDE00"/>
<stop offset="0.254" stop-color="#FFBF00"/>
<stop offset="0.429" stop-color="#FF8E00"/>
<stop offset="0.769" stop-color="#FF272D"/>
<stop offset="0.872" stop-color="#E0255A"/>
<stop offset="0.953" stop-color="#CC2477"/>
<stop offset="1" stop-color="#C42482"/>
</radialGradient>
<radialGradient id="paint1_radial_3758_45654" cx="0" cy="0" r="1" gradientUnits="userSpaceOnUse" gradientTransform="translate(8.34665 2.85528) scale(12.1999 11.8201)">
<stop stop-color="#00CCDA"/>
<stop offset="0.22" stop-color="#0083FF"/>
<stop offset="0.261" stop-color="#007AF9"/>
<stop offset="0.33" stop-color="#0060E8"/>
<stop offset="0.333" stop-color="#005FE7"/>
<stop offset="0.438" stop-color="#2639AD"/>
<stop offset="0.522" stop-color="#401E84"/>
<stop offset="0.566" stop-color="#4A1475"/>
</radialGradient>
<linearGradient id="paint2_linear_3758_45654" x1="6.80516" y1="9.39248" x2="4.53135" y2="1.71542" gradientUnits="userSpaceOnUse">
<stop stop-color="#000F43" stop-opacity="0.4"/>
<stop offset="0.485" stop-color="#001962" stop-opacity="0.173"/>
<stop offset="1" stop-color="#002079" stop-opacity="0"/>
</linearGradient>
<radialGradient id="paint3_radial_3758_45654" cx="0" cy="0" r="1" gradientUnits="userSpaceOnUse" gradientTransform="translate(10.1729 6.66904) rotate(5.49431) scale(4.11377 3.98808)">
<stop offset="0.003" stop-color="#FFEA00"/>
<stop offset="0.497" stop-color="#FF272D"/>
<stop offset="1" stop-color="#C42482"/>
</radialGradient>
<radialGradient id="paint4_radial_3758_45654" cx="0" cy="0" r="1" gradientUnits="userSpaceOnUse" gradientTransform="translate(10.1921 2.82901) rotate(5.49431) scale(6.86967 6.65977)">
<stop offset="0.003" stop-color="#FFE900"/>
<stop offset="0.157" stop-color="#FFAF0E"/>
<stop offset="0.316" stop-color="#FF7A1B"/>
<stop offset="0.472" stop-color="#FF4E26"/>
<stop offset="0.621" stop-color="#FF2C2E"/>
<stop offset="0.762" stop-color="#FF1434"/>
<stop offset="0.892" stop-color="#FF0538"/>
<stop offset="1" stop-color="#FF0039"/>
</radialGradient>
<radialGradient id="paint5_radial_3758_45654" cx="0" cy="0" r="1" gradientUnits="userSpaceOnUse" gradientTransform="translate(10.5301 9.06376) rotate(5.49431) scale(6.30367 6.11107)">
<stop offset="0.003" stop-color="#FF272D"/>
<stop offset="0.497" stop-color="#C42482"/>
<stop offset="0.986" stop-color="#620700"/>
</radialGradient>
<radialGradient id="paint6_radial_3758_45654" cx="0" cy="0" r="1" gradientUnits="userSpaceOnUse" gradientTransform="translate(9.00198 5.30468) scale(9.84519 9.53867)">
<stop offset="0.156" stop-color="#FFEA00"/>
<stop offset="0.231" stop-color="#FFDE00"/>
<stop offset="0.365" stop-color="#FFBF00"/>
<stop offset="0.541" stop-color="#FF8E00"/>
<stop offset="0.763" stop-color="#FF272D"/>
<stop offset="0.796" stop-color="#F92433"/>
<stop offset="0.841" stop-color="#E91C45"/>
<stop offset="0.893" stop-color="#CF0E62"/>
<stop offset="0.935" stop-color="#B5007F"/>
</radialGradient>
<radialGradient id="paint7_radial_3758_45654" cx="0" cy="0" r="1" gradientUnits="userSpaceOnUse" gradientTransform="translate(8.26134 0.515491) scale(11.6254 11.2635)">
<stop offset="0.279" stop-color="#FFEA00"/>
<stop offset="0.402" stop-color="#FFDD00"/>
<stop offset="0.63" stop-color="#FFBA00"/>
<stop offset="0.856" stop-color="#FF9100"/>
<stop offset="0.933" stop-color="#FF6711"/>
<stop offset="0.994" stop-color="#FF4A1D"/>
</radialGradient>
<linearGradient id="paint8_linear_3758_45654" x1="0.230585" y1="5.19532" x2="4.69743" y2="4.49555" gradientUnits="userSpaceOnUse">
<stop stop-color="#C42482" stop-opacity="0.5"/>
<stop offset="0.474" stop-color="#FF272D" stop-opacity="0.5"/>
<stop offset="0.486" stop-color="#FF2C2C" stop-opacity="0.513"/>
<stop offset="0.675" stop-color="#FF7A1A" stop-opacity="0.72"/>
<stop offset="0.829" stop-color="#FFB20D" stop-opacity="0.871"/>
<stop offset="0.942" stop-color="#FFD605" stop-opacity="0.964"/>
<stop offset="1" stop-color="#FFE302"/>
</linearGradient>
<linearGradient id="paint9_linear_3758_45654" x1="1.80278" y1="3.64388" x2="1.32409" y2="1.87267" gradientUnits="userSpaceOnUse">
<stop stop-color="#891551" stop-opacity="0.6"/>
<stop offset="1" stop-color="#C42482" stop-opacity="0"/>
</linearGradient>
<linearGradient id="paint10_linear_3758_45654" x1="2.77557" y1="6.22039" x2="3.77666" y2="7.66195" gradientUnits="userSpaceOnUse">
<stop offset="0.005" stop-color="#891551" stop-opacity="0.5"/>
<stop offset="0.484" stop-color="#FF272D" stop-opacity="0.5"/>
<stop offset="1" stop-color="#FF272D" stop-opacity="0"/>
</linearGradient>
<linearGradient id="paint11_linear_3758_45654" x1="4.77023" y1="8.69541" x2="4.85931" y2="7.78753" gradientUnits="userSpaceOnUse">
<stop stop-color="#C42482"/>
<stop offset="0.083" stop-color="#C42482" stop-opacity="0.81"/>
<stop offset="0.206" stop-color="#C42482" stop-opacity="0.565"/>
<stop offset="0.328" stop-color="#C42482" stop-opacity="0.362"/>
<stop offset="0.447" stop-color="#C42482" stop-opacity="0.204"/>
<stop offset="0.562" stop-color="#C42482" stop-opacity="0.091"/>
<stop offset="0.673" stop-color="#C42482" stop-opacity="0.023"/>
<stop offset="0.773" stop-color="#C42482" stop-opacity="0"/>
</linearGradient>
<linearGradient id="paint12_linear_3758_45654" x1="7.81047" y1="0.940423" x2="11.4592" y2="9.36166" gradientUnits="userSpaceOnUse">
<stop stop-color="#FFF14F"/>
<stop offset="0.268" stop-color="#FFEE4C"/>
<stop offset="0.452" stop-color="#FFE643"/>
<stop offset="0.612" stop-color="#FFD834"/>
<stop offset="0.757" stop-color="#FFC41E"/>
<stop offset="0.892" stop-color="#FFAB02"/>
<stop offset="0.902" stop-color="#FFA900"/>
<stop offset="0.949" stop-color="#FFA000"/>
<stop offset="1" stop-color="#FF9100"/>
</linearGradient>
<linearGradient id="paint13_linear_3758_45654" x1="8.57011" y1="5.73397" x2="6.84653" y2="10.5104" gradientUnits="userSpaceOnUse">
<stop stop-color="#FF8E00"/>
<stop offset="0.04" stop-color="#FF8E00" stop-opacity="0.858"/>
<stop offset="0.084" stop-color="#FF8E00" stop-opacity="0.729"/>
<stop offset="0.13" stop-color="#FF8E00" stop-opacity="0.628"/>
<stop offset="0.178" stop-color="#FF8E00" stop-opacity="0.557"/>
<stop offset="0.227" stop-color="#FF8E00" stop-opacity="0.514"/>
<stop offset="0.282" stop-color="#FF8E00" stop-opacity="0.5"/>
<stop offset="0.389" stop-color="#FF8E00" stop-opacity="0.478"/>
<stop offset="0.524" stop-color="#FF8E00" stop-opacity="0.416"/>
<stop offset="0.676" stop-color="#FF8E00" stop-opacity="0.314"/>
<stop offset="0.838" stop-color="#FF8E00" stop-opacity="0.172"/>
<stop offset="1" stop-color="#FF8E00" stop-opacity="0"/>
</linearGradient>
<clipPath id="clip0_3758_45654">
<rect width="12" height="12" fill="white" transform="translate(0 0.5)"/>
</clipPath>
</defs>
</svg>
